PathFileType	4	(X/Y/Z)	s10c0402.trc
DataRate	CameraRate	NumFrames	NumMarkers	Units	OrigDataRate	OrigDataStartFrame	OrigNumFrames
200	200	4	49	mm	200	250	2000
Frame#	Time	racr			lacr			c7			jug			rlel			rdr			llel			ldr			s2			lic			ric			lasi			rasi			rpsi			lpsi			rgt			lgt			rth1			rth2			rth3			rth4			rlfc			rmfc			rsh1			rsh2			rsh3			rsh4			rlmal			rmmal			rcal			rtoe			rmt5			lth1			lth2			lth4			lth3			llfc			lmfc			llmal			lcal			lmt5			lsh1			lsh2			lsh3			lsh4			ltoe			SBIKE			LBIKE			RBIKE			
		X1	Y1	Z1	X2	Y2	Z2	X3	Y3	Z3	X4	Y4	Z4	X5	Y5	Z5	X6	Y6	Z6	X7	Y7	Z7	X8	Y8	Z8	X9	Y9	Z9	X10	Y10	Z10	X11	Y11	Z11	X12	Y12	Z12	X13	Y13	Z13	X14	Y14	Z14	X15	Y15	Z15	X16	Y16	Z16	X17	Y17	Z17	X18	Y18	Z18	X19	Y19	Z19	X20	Y20	Z20	X21	Y21	Z21	X22	Y22	Z22	X23	Y23	Z23	X24	Y24	Z24	X25	Y25	Z25	X26	Y26	Z26	X27	Y27	Z27	X28	Y28	Z28	X29	Y29	Z29	X30	Y30	Z30	X31	Y31	Z31	X32	Y32	Z32	X33	Y33	Z33	X34	Y34	Z34	X35	Y35	Z35	X36	Y36	Z36	X37	Y37	Z37	X38	Y38	Z38	X39	Y39	Z39	X40	Y40	Z40	X41	Y41	Z41	X42	Y42	Z42	X43	Y43	Z43	X44	Y44	Z44	X45	Y45	Z45	X46	Y46	Z46	X47	Y47	Z47	X48	Y48	Z48	X49	Y49	Z49	
250	1.2500	633.295869	1219.446832	13.816991	646.808160	1307.539959	-305.760978	627.807011	1325.512688	-146.618319	594.813336	1183.255632	-164.794826	452.870291	1014.715365	62.491741	608.948932	922.957447	-43.729284	506.122591	1095.021354	-444.120144	620.838140	909.705029	-425.758240	73.554978	1232.706706	-170.810428	228.722158	1211.329973	-335.312948	258.020899	1182.977465	-50.648565	219.935879	1121.356419	-312.567866	233.342077	1103.570934	-64.993892	135.402250	1271.297286	-118.773245	136.607756	1282.969383	-231.124546	142.031126	1113.445822	5.229224	79.159685	1110.397978	-372.515973	205.813997	981.003939	12.590479	271.452093	925.985641	-11.746335	298.997926	846.326194	-27.497818	299.473300	949.489125	-19.636041	363.775501	760.206736	-57.236505	337.157793	757.141710	-169.397970	307.077252	658.842102	-25.484215	298.724904	571.805816	-42.877624	250.766575	500.058601	-44.523842	324.124964	567.352324	-71.812291	210.057460	403.968902	-61.518886	226.208300	423.802217	-146.139035	155.108696	372.722154	-108.050836	397.527754	381.262037	-103.010073	319.462682	344.761040	-40.096689	121.409952	987.029989	-402.387035	174.265098	918.138791	-397.343191	206.924145	931.972193	-388.013762	185.432448	830.399742	-399.526994	214.789334	723.792633	-397.275594	222.845704	704.542180	-281.469818	-42.548558	434.804228	-382.980463	-96.781087	436.540559	-333.364078	3.577221	290.921021	-397.799500	111.454835	645.371457	-420.711604	84.132773	562.872252	-406.606359	16.289371	505.526208	-399.336267	111.064372	548.171688	-384.077096	85.285838	258.369626	-344.582740	-180.502304	823.379582	-210.087185	-103.859332	80.313457	-418.036524	-103.889570	80.405415	-18.306557	
251	1.2550	632.877730	1219.159711	14.271011	647.287041	1307.152374	-305.573770	628.081601	1325.276353	-146.353609	595.105693	1183.076390	-164.426952	452.212456	1014.507170	62.585877	608.797976	923.286145	-43.569306	506.104587	1095.037869	-444.223416	620.844056	909.694118	-425.868240	74.293946	1232.301731	-171.136571	229.414510	1211.276237	-335.701918	258.511907	1182.166488	-50.897307	220.666489	1121.208079	-313.071180	234.165500	1102.664020	-65.315550	135.820531	1270.571066	-118.856666	137.157252	1282.528624	-231.227539	142.945853	1111.966729	4.591656	80.350344	1110.420607	-373.149806	206.484653	979.657103	11.931638	272.083309	924.480046	-12.369219	299.437966	844.801732	-28.160944	300.024793	947.950206	-20.601392	363.875076	758.458478	-57.836308	337.687002	755.450824	-170.131218	307.165108	657.100576	-25.925997	298.950236	570.272177	-43.261480	250.949877	498.312081	-44.752164	324.263300	565.630401	-72.212201	210.258927	402.267943	-61.576389	226.556810	421.962609	-146.275041	155.375051	370.821953	-108.172693	397.856679	379.364303	-102.980986	319.706568	342.947701	-40.082537	123.142202	987.024489	-403.037025	176.226546	918.341065	-397.875653	208.861835	932.324135	-388.638532	187.723542	830.708612	-399.974634	217.354055	723.831420	-397.647532	225.766650	704.752804	-281.968058	-41.787600	436.711023	-382.991399	-96.064184	438.841486	-333.423413	3.545206	292.635141	-397.749215	113.848439	646.068008	-421.011141	85.886730	563.968440	-406.950382	17.571513	507.051478	-399.516909	112.720560	549.008394	-384.409038	84.985301	259.490367	-344.645269	-180.449963	823.291908	-210.210194	-103.695941	80.230109	-417.923602	-103.893134	80.404638	-18.306206	
252	1.2600	632.375687	1218.875980	14.677996	647.731138	1306.811400	-305.431452	628.296590	1325.150626	-146.047001	595.363719	1182.876434	-164.085373	451.566273	1014.365203	62.700299	608.520425	923.469831	-43.426082	506.088868	1095.041733	-444.389160	620.880966	909.951822	-426.378443	74.993096	1231.513789	-171.434832	230.002644	1211.219473	-336.007383	258.972947	1181.307315	-51.177407	221.273822	1121.038651	-313.526758	234.956528	1101.816803	-65.597772	136.412070	1269.466655	-119.250649	137.626107	1281.976924	-231.209433	143.710715	1110.539026	3.991527	81.489262	1110.383185	-373.857203	207.151554	978.233579	11.283102	272.630254	922.961773	-13.043581	299.778170	843.248348	-28.802193	300.503816	946.378017	-21.282812	363.903083	756.853020	-58.347624	337.864669	753.886284	-170.711063	307.183953	655.504500	-26.385282	299.131831	568.512966	-43.602964	251.187979	496.550378	-45.004729	324.415300	563.931751	-72.568306	210.447979	400.626674	-61.701467	226.863080	420.101202	-146.461619	155.654663	369.293093	-108.131508	398.176136	377.420552	-102.960573	319.958322	341.071077	-40.103431	124.837021	986.885813	-403.667234	178.167081	918.424971	-398.472099	210.743879	932.482313	-389.313358	190.034468	830.867996	-400.425457	219.971185	723.947946	-398.159112	229.052646	704.431096	-282.785128	-40.993771	438.649735	-383.051108	-95.219826	441.117119	-333.404990	3.514943	294.326749	-397.733913	116.201762	646.881800	-421.350961	87.674702	564.921870	-407.160064	18.920052	508.500199	-399.643527	114.341330	549.790614	-384.601538	84.805954	260.637661	-344.602211	-180.399354	823.248064	-210.311973	-103.588991	80.550569	-418.237390	-103.883609	80.405557	-18.298081	
253	1.2650	631.922986	1218.592717	15.116820	648.116668	1306.431584	-305.219929	628.487446	1324.920041	-145.854504	595.321375	1182.301752	-162.819537	450.922876	1014.075313	62.823255	608.211543	923.680214	-43.313254	506.063882	1094.999639	-444.573267	620.613520	910.060172	-426.908380	75.522191	1230.803869	-171.612564	230.654733	1211.127313	-336.501968	259.384428	1180.600332	-51.505360	221.986875	1120.810621	-314.099521	235.321485	1100.041684	-68.219785	136.784937	1268.675347	-119.532653	138.033863	1281.439763	-231.339985	144.487855	1109.025728	3.345566	82.648885	1110.306929	-374.607786	207.707399	976.970876	10.613713	273.010987	921.527720	-13.644500	300.017838	841.713173	-29.475027	300.998399	944.892299	-21.988015	363.926696	755.217884	-58.920574	335.728032	751.830951	-170.626963	307.178612	653.908230	-26.772233	299.240466	566.779625	-43.947153	251.395479	494.934660	-45.269931	324.529294	562.286484	-72.893188	210.724443	398.982362	-61.775912	227.212286	418.356065	-146.572852	155.917827	367.649377	-108.238887	398.464694	375.427052	-102.931832	320.156163	339.229021	-40.108139	126.494769	986.753332	-404.421710	180.096312	918.444994	-399.119105	212.592357	932.597360	-390.058055	192.287991	830.857082	-400.879218	222.669749	723.966442	-398.787180	232.261731	704.874241	-283.138100	-40.114073	440.689696	-383.123100	-94.362313	443.439103	-333.368993	3.516835	295.999867	-397.707803	118.669521	647.649811	-421.597146	89.459929	565.828260	-407.268836	20.323536	510.103735	-399.742209	116.137327	550.484283	-384.943392	84.601957	261.998009	-344.660507	-180.237619	823.322669	-210.019873	-103.577561	80.570502	-418.238154	-103.884871	80.405691	-18.303959	
